<?xml version="1.0" encoding="UTF-8" standalone="no"?>
<svg
   version="1.1"
   viewBox="0 0 223.685 223.68499"
   fill="none"
   stroke="none"
   stroke-linecap="square"
   stroke-miterlimit="10"
   id="svg546"
   width="223.685"
   height="223.685"
   xmlns="http://www.w3.org/2000/svg"
   xmlns:svg="http://www.w3.org/2000/svg">
  <defs
     id="defs546" />
  <clipPath
     id="g220a5e3e755_1_966.0">
    <path
       d="M 0,0 H 960 V 540 H 0 Z"
       clip-rule="nonzero"
       id="path1" />
  </clipPath>
  <g
     clip-path="url(#g220a5e3e755_1_966.0)"
     id="g546"
     transform="translate(-660.12334,-158.55316)">
    <g
       id="g547"
       transform="translate(-4.4244141e-4,32.637414)">
      <path
         fill="#ffa358"
         d="m 705.74146,240.26329 -8.11664,0.61702 -8.50537,2.70564 1.23706,1.31426 5.56537,0.77437 h 6.72839 l 8.50537,-3.48002 1.15998,-1.31425 z"
         fill-rule="evenodd"
         id="path352" />
      <path
         fill="#b8a9a2"
         d="m 761.3335,250.85419 c 1.08289,1.70299 1.15997,3.94586 0.62012,5.87717 -0.62012,1.93435 -1.93433,3.63424 -3.40277,4.94851 -1.46845,1.31424 -3.16834,2.39713 -5.02552,2.78278 -0.48742,0.0709 -0.98718,0.10797 -1.4931,0.10797 -0.617,0 -1.23401,-0.0555 -1.83252,-0.18512 v 0 c 0.77435,1.31427 1.31732,2.78586 1.54871,4.2544 0.69409,0.23138 1.31421,0.38562 2.0083,0.46276 0.60162,0.0987 1.2124,0.14808 1.8294,0.14808 2.31995,0 4.67383,-0.70649 6.44458,-2.2367 2.31995,-1.9313 3.55707,-5.02566 3.40278,-8.03982 -0.15424,-3.01725 -1.93427,-6.03141 -4.09998,-8.12003 z"
         fill-rule="evenodd"
         id="path353" />
      <path
         fill="#b8a9a2"
         d="m 743.5515,260.44247 c 0.85144,1.31424 1.31421,3.63425 2.47418,4.71713 1.69983,1.54566 3.6341,2.78278 5.72266,3.48001 -0.23139,-1.4685 -0.77429,-2.94012 -1.54865,-4.25436 -0.77124,-0.0771 -1.46844,-0.30853 -2.16259,-0.61704 -1.70295,-0.77435 -3.24854,-2.0115 -4.4856,-3.32574 z"
         fill-rule="evenodd"
         id="path354" />
      <path
         fill="#b8a9a2"
         d="m 715.0983,205.77881 c -1.15997,0.0771 -2.2428,0.61702 -3.17139,1.31425 -3.78839,2.47428 -6.57104,6.41706 -7.88525,10.74547 0.38562,-0.23138 1.31421,-0.38565 1.62268,-0.69415 2.47418,-2.24287 5.41418,-4.17416 8.50537,-5.56863 0.92859,-0.38564 1.85718,-0.77129 2.55133,-1.39139 0.77435,-0.69415 1.31421,-1.69991 1.08283,-2.62853 -0.30848,-1.16 -1.5456,-1.77702 -2.70557,-1.77702 z"
         fill-rule="evenodd"
         id="path355" />
      <path
         fill="#191919"
         fill-opacity="0.1161"
         d="m 715.0983,206.93878 c -0.92859,0.0771 -1.85718,0.61702 -2.55127,1.08287 -2.47418,1.69991 -4.56274,4.09705 -6.03119,6.80269 2.2428,-1.69991 4.63983,-3.17151 7.19116,-4.32842 l 0.30848,-0.0802 c 0.6972,-0.38564 1.46844,-0.69415 1.93432,-1.15692 0.53986,-0.38872 0.77124,-1.00576 0.69409,-1.39447 -0.15423,-0.5399 -0.77124,-0.92554 -1.46844,-0.92554 z"
         fill-rule="evenodd"
         id="path356" />
      <path
         fill="#000000"
         d="m 730.34143,304.74966 c -0.93475,0 -1.86639,0.17896 -2.7179,0.53992 l -0.38562,2.62851 c -0.23138,1.54565 1.00574,3.01416 2.62842,3.01416 h 1.31421 c 1.39136,0 2.55133,-1.08289 2.62848,-2.55139 l 0.15424,-2.62851 c -1.0705,-0.66947 -2.34772,-1.00269 -3.62183,-1.00269 z"
         fill-rule="evenodd"
         id="path357" />
      <path
         fill="#b8a9a2"
         d="m 720.201,269.72223 0.85144,5.56555 c 0.0771,0.543 0.23138,1.08289 0.30853,1.54566 4.4856,2.63159 8.73676,5.7229 12.60224,9.12576 l -0.15424,-0.85147 c -0.617,-3.09131 -0.69409,-6.18567 -0.30847,-9.27695 z"
         fill-rule="evenodd"
         id="path358" />
      <path
         fill="#b8a9a2"
         d="m 721.36096,276.83325 c 0.53986,2.24286 1.46844,4.33148 2.70557,6.18564 l 5.49133,8.50567 -1.93433,13.76578 c 0.85144,-0.36096 1.78315,-0.53988 2.7179,-0.53988 1.27411,0 2.55127,0.33319 3.62182,1.00265 l 0.7743,-14.53708 c 0.0771,-0.617 0,-1.16 -0.0771,-1.77701 l -0.69721,-3.48001 c -3.86553,-3.40289 -8.11669,-6.49417 -12.60229,-9.12576 z"
         fill-rule="evenodd"
         id="path359" />
      <path
         fill="#000000"
         d="m 686.383,262.81793 c -0.5368,0 -1.07666,0.0617 -1.59491,0.17587 -0.84839,0.23139 -1.62274,0.62009 -2.23975,1.16001 l 0.46277,3.17147 c 0.30847,2.24289 2.16565,3.94278 4.4054,4.09705 0.0431,0.003 0.0833,0.003 0.12646,0.003 1.25562,0 2.26752,-1.12607 2.11634,-2.4002 l -0.69416,-5.64579 c -0.7774,-0.38562 -1.67517,-0.56149 -2.58215,-0.56149 z"
         fill-rule="evenodd"
         id="path360" />
      <path
         fill="#b8a9a2"
         d="m 694.06775,250.85419 -1.93427,3.24863 0.85145,4.64001 -3.71125,-3.01724 c -0.83294,-0.67563 -1.87262,-1.03659 -2.93384,-1.03659 -0.51831,0 -1.04278,0.0864 -1.55175,0.26532 -2.00836,0.77127 -3.24549,2.78277 -2.93695,4.94852 l 0.6972,4.25128 c 0.61701,-0.53989 1.39136,-0.92862 2.23975,-1.16001 0.51825,-0.11413 1.0581,-0.17584 1.59491,-0.17584 0.90698,0 1.80474,0.17584 2.58215,0.56149 l 8.1167,7.03714 c 0.68793,0.62629 1.52704,0.89777 2.39392,0.89777 0.20673,0 0.41339,-0.0154 0.62317,-0.0463 1.93121,-0.38566 3.16833,-2.24289 2.78271,-4.17417 l -2.39709,-12.45152 z"
         fill-rule="evenodd"
         id="path361" />
      <path
         fill="#191919"
         fill-opacity="0.1161"
         d="m 688.3451,259.20538 0.62012,4.17416 5.33392,4.64002 z"
         fill-rule="evenodd"
         id="path362" />
      <path
         fill="#000000"
         d="m 740.3739,304.44736 c -0.27765,0 -0.56146,0.0247 -0.84216,0.0679 -0.92859,0.0771 -1.93433,0.46277 -2.78272,0.92862 l -0.85144,1.85416 c -0.77435,1.70297 0.38562,3.63424 2.2428,3.63424 h 1.46844 c 1.23713,0 2.39704,-0.77435 2.85981,-2.01147 l 0.8515,-2.23981 c -0.23139,-0.62012 -0.54297,-1.16 -1.00574,-1.62585 -0.5553,-0.44425 -1.2309,-0.60776 -1.94049,-0.60776 z"
         fill-rule="evenodd"
         id="path363" />
      <path
         fill="#b8a9a2"
         d="m 733.8089,276.6807 v 0 c 0.0463,0.14807 0.0925,0.29309 0.14496,0.435 v 0 z m -13.51856,-62.09103 c -0.25909,0 -0.52441,0.0494 -0.78356,0.15733 l -6.57416,2.62852 c -0.47815,0.18511 -0.99335,0.28075 -1.50238,0.28075 -0.5553,0 -1.10443,-0.11415 -1.58881,-0.35788 l -1.70294,-0.77435 c -0.6756,-0.31778 -1.40057,-0.47511 -2.12244,-0.47511 -0.84839,0 -1.6875,0.21287 -2.43719,0.63244 l -2.78577,1.62277 c -2.7055,1.54564 -4.94836,3.78853 -6.33966,6.57129 l -0.92859,1.70299 c -2.93695,5.48842 -4.25116,11.75121 -3.78839,17.93686 l 0.23444,3.94278 c 0.38562,4.79428 2.00836,9.35716 4.86816,13.14568 -0.0772,-0.23139 -0.0772,-0.46277 -0.0772,-0.69724 -0.23138,-3.1684 2.01142,-6.10544 5.25995,-6.72554 l 2.55133,-0.38565 c 0.36707,-0.071 0.74036,-0.10489 1.10748,-0.10489 1.6474,0 3.25782,0.68181 4.45783,1.88191 l 3.78839,3.7114 c 0,0.0772 0.0771,0.15426 0.1543,0.15426 0.54297,0.62012 1.15997,1.16001 1.78003,1.62586 1.69983,1.46851 3.47992,2.70566 5.48822,3.71139 0.38873,0.23139 0.8515,0.46277 1.31421,0.69416 l 5.64556,2.62851 c 1.85718,0.92862 3.47992,2.16574 4.79413,3.78851 1.23706,1.39447 2.08857,3.01724 2.70557,4.79428 0,0 0,0 0,0 v 0 c 0.28998,0.79596 0.64477,1.58884 1.06738,2.38172 v 0 c -0.35785,-0.61088 -0.6756,-1.25873 -0.92242,-1.94672 v 0 l 0.32086,0.95639 8.57941,14.53708 -6.10523,12.83716 c 0.84839,-0.46585 1.85407,-0.85151 2.78266,-0.92862 0.28076,-0.0432 0.56457,-0.0679 0.84222,-0.0679 0.70953,0 1.38519,0.16351 1.94049,0.60775 0.46271,0.46585 0.77429,1.00574 1.00568,1.62586 l 4.25116,-11.60004 c 0.62011,-1.54562 0.77435,-3.24554 0.38873,-4.8714 l -0.92859,-4.63693 c -0.23138,-1.16 -0.1543,-2.32001 0.15424,-3.40286 l 2.08856,-7.81153 c 0.53985,-2.2398 0.617,-4.55981 0.15423,-6.87982 -1.08282,-5.64575 -5.33703,-10.12842 -10.82531,-11.67715 l -6.33966,-1.77703 -13.2995,-6.6515 c -3.86548,-1.93129 -7.11402,-5.02565 -9.12238,-8.81418 L 706.67,232.68693 v 0 l 5.7998,0.8484 c 0.37024,0.074 0.74353,0.11107 1.11371,0.11107 0.78973,0 1.57641,-0.15735 2.36621,-0.41959 l 1.23706,-0.38563 c 1.54559,-0.54299 2.70557,-1.78011 3.24542,-3.24863 0.23139,-0.5399 0.31159,-1.16 0.23139,-1.6999 v -0.15426 l -2.78266,1.23714 c -0.74963,0.29926 -1.53631,0.45351 -2.31683,0.45351 -0.82373,0 -1.64435,-0.17276 -2.40015,-0.53372 l -8.11664,-3.7114 7.73102,-0.5399 c 1.85718,-0.0771 3.78839,-0.61702 5.49134,-1.54564 l 1.3142,-0.77437 c 1.93122,-1.00574 3.09119,-3.09128 2.85981,-5.25703 l -0.0771,-0.54297 c -0.0617,-1.11682 -1.02112,-1.93437 -2.07624,-1.93437 z"
         fill-rule="evenodd"
         id="path364" />
      <path
         fill="#ebbe90"
         d="m 703.68066,253.68933 c -0.36707,0 -0.74036,0.0339 -1.10748,0.1049 l -2.55133,0.38564 c -3.24848,0.6201 -5.49128,3.55713 -5.25995,6.72555 l 0.0772,0.69724 c 0.6972,0.92862 1.39441,1.85724 2.24279,2.70566 l 2.08857,2.16574 c 2.44024,2.51129 5.81213,3.89032 9.25195,3.89032 0.26532,0 0.53369,-0.006 0.79901,-0.0247 l 3.63416,-0.23138 c 0.30847,-0.0154 0.62005,-0.0216 0.92858,-0.0216 3.09119,0 6.15766,0.7034 8.96808,2.11023 l 11.52253,5.87405 -0.46582,-1.31427 v -0.0771 c -0.61701,-1.77704 -1.5456,-3.39982 -2.70557,-4.79429 -1.31421,-1.62277 -3.01715,-2.93701 -4.94837,-3.86566 l -5.49127,-2.55136 c -0.617,-0.30853 -1.23712,-0.61703 -1.85412,-0.92862 -1.85718,-1.0798 -3.63416,-2.31692 -5.25684,-3.71139 -0.46582,-0.46277 -1.00574,-0.84842 -1.47156,-1.39139 -0.0772,0 -0.15423,-0.0771 -0.15423,-0.15427 l -3.78839,-3.71139 c -1.20008,-1.20011 -2.81049,-1.88193 -4.45789,-1.88193 z"
         fill-rule="evenodd"
         id="path365" />
      <path
         fill="#000000"
         d="m 702.52075,264.2309 c -0.54913,0 -1.10443,0.0802 -1.65051,0.23138 -0.84833,0.15424 -1.62268,0.62009 -2.31684,1.16001 l 0.46277,3.17148 c 0.30847,2.24289 2.16565,3.94278 4.4054,4.01992 0.0864,0.009 0.16968,0.0154 0.24988,0.0154 1.26794,0 2.21197,-1.10447 1.99292,-2.41257 l -0.69416,-5.56555 c -0.75274,-0.42572 -1.59186,-0.62009 -2.44946,-0.62009 z"
         fill-rule="evenodd"
         id="path366" />
      <path
         fill="#b8a9a2"
         d="m 710.14996,252.24554 -2.01141,3.32576 0.85144,4.64 -3.71125,-3.01724 c -0.81134,-0.70957 -1.82324,-1.05204 -2.83819,-1.05204 -0.53064,0 -1.06433,0.0926 -1.57031,0.28077 -2.0083,0.69415 -3.24543,2.78277 -2.93689,4.8714 l 0.62005,4.32839 c 0.69416,-0.53988 1.46851,-1.00573 2.31684,-1.16 0.54608,-0.15115 1.10138,-0.23135 1.65051,-0.23135 0.8576,0 1.69671,0.19433 2.44946,0.62008 l 8.19379,7.03406 c 0.60467,0.543 1.44073,0.8515 2.29217,0.8515 0.24067,0 0.48438,-0.0247 0.72498,-0.0771 1.85413,-0.38566 3.09119,-2.24289 2.78271,-4.09705 l -2.47418,-12.44843 z"
         fill-rule="evenodd"
         id="path367" />
      <path
         fill="#191919"
         fill-opacity="0.1161"
         d="m 708.13855,255.57121 0.8515,4.64 6.80554,5.56555 z"
         fill-rule="evenodd"
         id="path368" />
      <path
         fill="#191919"
         fill-opacity="0.1161"
         d="m 704.4273,260.5967 0.54297,4.25439 5.33398,4.55979 v 0 z"
         fill-rule="evenodd"
         id="path369" />
      <path
         fill="#da6274"
         d="m 712.77844,224.64377 -7.73108,0.5399 8.1167,3.7114 c 0.7558,0.36096 1.57642,0.53372 2.40015,0.53372 0.78045,0 1.56714,-0.15425 2.31683,-0.45351 l 2.78265,-1.23713 z"
         fill-rule="evenodd"
         id="path370" />
      <path
         fill="#da6274"
         d="m 712.0812,224.7209 -3.32251,0.23138 c 0.69409,1.62586 0.46271,3.63427 -0.54297,5.10279 -0.77124,1.00573 -1.85412,1.7801 -2.70556,2.63159 -0.85145,0.92554 -1.62275,2.08554 -1.39136,3.32268 0.15429,1.23713 1.39136,2.24287 2.62842,2.39714 0.23449,0.0432 0.46276,0.0617 0.6911,0.0617 1.0581,0 2.05151,-0.41649 2.94305,-0.99031 2.01141,-1.31427 3.40277,-3.47693 3.7113,-5.79694 0.38562,-2.39714 -0.53991,-5.17991 -2.01147,-6.96002 z"
         fill-rule="evenodd"
         id="path371" />
      <path
         fill="#000000"
         d="m 720.7717,215.33624 c -0.0587,0 -0.1203,0.009 -0.18512,0.0278 -1.00262,0.15734 -1.93121,0.54298 -2.8598,1.08288 -0.46277,0.31159 -0.38562,1.08287 0.15423,1.23712 0.69721,0.23447 1.39136,0.3116 2.08857,0.38874 0.38562,0 0.69415,-0.23447 0.92858,-0.54299 0.23139,-0.38563 0.38562,-0.92862 0.46277,-1.39139 0.13263,-0.40106 -0.19745,-0.80212 -0.58923,-0.80212 z"
         fill-rule="evenodd"
         id="path372" />
      <path
         fill="#000000"
         d="m 706.59296,218.68967 c -0.46271,0 -0.92859,0.38872 -0.92859,0.92862 0,0.46277 0.46588,0.85149 0.92859,0.85149 0.53992,0 0.92859,-0.38872 0.92859,-0.85149 0,-0.5399 -0.38867,-0.92862 -0.92859,-0.92862 z"
         fill-rule="evenodd"
         id="path373" />
      <path
         fill="#b8a9a2"
         d="m 703.3907,207.43239 c -0.29926,0 -0.60156,0.0432 -0.89465,0.1234 -0.7743,0.23138 -1.46845,0.77437 -2.0885,1.31427 -2.01148,1.85724 -3.47992,4.25436 -4.09693,6.88289 -0.62005,2.62852 -0.46582,5.41128 0.46277,7.96267 0.30847,-0.38563 0.77429,-0.8484 0.85144,-1.31425 0.69415,-2.93703 2.31995,-5.64267 4.55963,-7.65418 1.08289,-0.92862 2.31995,-1.77702 3.01715,-2.93702 0.77436,-1.23714 0.85144,-3.01725 -0.23138,-3.86873 -0.45654,-0.35172 -1.01184,-0.50905 -1.57953,-0.50905 z"
         fill-rule="evenodd"
         id="path374" />
      <path
         fill="#f49d5c"
         d="m 712.3156,240.8803 c -4.48248,2.70872 -9.52649,4.16182 -14.59827,4.16182 -2.89062,0 -5.79052,-0.47203 -8.5979,-1.45618 v 2.01149 c 3.14051,1.12299 6.10523,1.55799 8.80463,1.55799 8.26471,0 14.05835,-4.06618 14.9314,-4.88373 z"
         fill-rule="evenodd"
         id="path375" />
      <path
         fill="#f49d5c"
         d="m 771.23334,191.08789 -11.59961,10.9028 8.27399,9.97418 9.97381,-12.37132 z"
         fill-rule="evenodd"
         id="path376" />
      <path
         fill="#191919"
         fill-opacity="0.1161"
         d="m 772.00464,192.09361 c -1.00574,2.39714 -1.15997,5.17992 -0.69415,7.73131 0.30853,2.01149 0.92553,3.94278 1.62274,5.87713 l 4.94836,-6.10852 z"
         fill-rule="evenodd"
         id="path377" />
      <path
         fill="#ae5d42"
         d="m 741.9596,175.32956 c -0.38867,0 -0.75275,0.145 -1.03656,0.37021 l -5.02545,3.78853 c -0.8515,0.6201 -1.15997,1.62585 -0.92859,2.62851 l 0.0771,0.23448 c 0.6972,2.47426 2.31994,4.5598 4.56274,5.79692 l 0.61701,0.3116 8.97119,25.2054 c 0.76202,2.1349 2.69323,3.36894 4.69848,3.36894 1.04273,0 2.10706,-0.33319 3.0326,-1.04893 l 8.81384,-6.64843 -6.10834,-7.34565 -4.09686,4.17414 -10.05097,-19.94834 0.15424,-0.23139 c 1.31421,-1.4716 2.00836,-3.48001 1.85413,-5.41438 l -0.1543,-1.31426 c 0,-0.77128 -0.61701,-1.39138 -1.3913,-1.46852 l -0.77435,-0.0771 v -0.77436 c 0,-0.61702 -0.46277,-1.08287 -1.00263,-1.23714 l -1.78002,-0.3085 c -0.14502,-0.0401 -0.29004,-0.0617 -0.43195,-0.0617 z"
         fill-rule="evenodd"
         id="path378" />
      <path
         fill="#191919"
         fill-opacity="0.1161"
         d="m 759.6337,201.99039 -0.77435,0.77129 3.40277,9.20289 3.47986,-2.62851 z"
         fill-rule="evenodd"
         id="path379" />
      <path
         fill="#191919"
         fill-opacity="0.1161"
         d="m 755.45966,206.08731 -3.71124,3.17151 c -0.0771,0 -0.0771,0.0771 0,0.0771 0,0.0771 0,0.0771 0.0771,0.0771 0,0 0,0 0.0771,-0.0771 l 3.63416,-3.09436 c 0.0771,0 0.0771,-0.0771 0.0771,-0.0771 -0.0771,-0.0771 -0.15424,-0.0771 -0.15424,-0.0771 z"
         fill-rule="evenodd"
         id="path380" />
      <path
         fill="#191919"
         fill-opacity="0.1161"
         d="m 740.2258,182.19698 c 0.15424,0.15425 0.31158,0.23138 0.46582,0.30852 0.23138,0.0771 0.46277,0.0771 0.617,0.15425 l -1.08282,0.61702 c 0.0771,-0.15425 0.0771,-0.3085 0.0771,-0.38564 z m 0.6972,-5.10587 c -0.0771,0 -0.0771,0 -0.15423,0.0771 0,0 0.0771,0.0802 0.0771,0.0802 l 0.85144,0.15425 c 0.69415,0.15426 1.23706,0.69416 1.31421,1.39139 v 0.23139 l -1.47156,1.00573 c -0.15424,-0.69723 -0.77124,-1.31425 -1.46845,-1.39138 l -1.08282,-0.15426 c 0,0 -0.0771,0 -0.0771,0.0771 0,0.0771 0,0.15425 0.0771,0.15425 l 1.00568,0.0771 c 0.6972,0.15425 1.23712,0.69416 1.39135,1.39139 l -1.46844,0.92862 c -0.0771,-0.62012 -0.61701,-1.00575 -1.23712,-1.08289 H 737.366 c -0.0771,0 -0.0771,0 -0.0771,0.0771 -0.0771,0.0771 0,0.0771 0.0771,0.0771 l 1.31421,0.0771 c 0.54297,0 1.00573,0.46277 1.08282,1.00575 l -0.15423,0.0771 v 0.0771 c 0.0771,0.23139 0.23138,0.38565 0.38562,0.5399 l 0.0771,0.92862 c 0.0772,0.23139 0,0.46277 -0.15423,0.6201 -0.1543,0.15427 -0.38562,0.23139 -0.61701,0.23139 l -2.01141,-0.23139 c 0,-0.23446 0.15424,-0.46585 0.30847,-0.69723 0.23139,-0.23138 0.54297,-0.3085 0.77436,-0.3085 h 0.0771 l 0.1543,0.69415 c 0,0.0771 0,0.0771 0.0771,0.0771 0.0771,0 0.0771,0 0.0771,-0.0771 l -0.30854,-2.08554 c -0.0555,-0.0555 -0.0709,-0.11107 -0.1018,-0.11107 -0.0154,0 -0.0308,0.009 -0.0524,0.0339 -0.0771,0 -0.0771,0 -0.0771,0.0771 l 0.1543,0.61702 v 0 l -2.01142,-0.0771 c 0,0 -0.0771,0.0771 -0.0771,0.0771 0,0.0771 0.0771,0.15425 0.0771,0.15425 l 2.01142,0.0771 0.0771,0.3116 h -0.0771 c -0.30854,0 -0.62012,0.15425 -0.92859,0.38564 -0.23139,0.30852 -0.30854,0.61702 -0.30854,1.00575 v 0.0771 l 2.16571,0.15427 h 0.0771 c 0.23139,0 0.46277,-0.0771 0.69415,-0.30852 l 1.6258,-1.00575 h 0.0771 c 0.15423,0 0.30847,-0.0771 0.4627,-0.15426 l 1.39136,-0.6201 v 0 c -1.00574,1.31426 -1.54559,2.94011 -1.46844,4.64002 v 0.85148 c 0,0.0771 0.0771,0.0771 0.0771,0.0771 0.0771,0 0.1543,0 0.1543,-0.0771 l -0.0772,-0.85148 c -0.0771,-1.77704 0.53986,-3.55715 1.77698,-4.8714 l 1.54864,-0.69724 c 0.0771,0 0.0771,-0.0771 0.0771,-0.15426 0,0 -0.0339,-0.0339 -0.0802,-0.0339 -0.0247,0 -0.0494,0.009 -0.074,0.0339 l -3.40277,1.54873 c -0.25605,0.12648 -0.51215,0.18511 -0.76508,0.18511 -0.20978,0 -0.41956,-0.0401 -0.62628,-0.10799 -0.38873,-0.23447 -0.69721,-0.46585 -0.92859,-0.92862 l 4.71698,-3.17149 c 0.0772,-0.0771 0.0772,-0.15425 0.0772,-0.15425 -0.0772,-0.0771 -0.0772,-0.0771 -0.1543,-0.0771 l -1.31421,0.92862 v -0.15425 c -0.0771,-0.77437 -0.62005,-1.39139 -1.39129,-1.54564 z"
         fill-rule="evenodd"
         id="path381" />
      <path
         fill="#2f748a"
         d="m 806.4118,235.00331 -19.33069,9.58853 9.89673,19.94835 c 2.16876,4.3346 6.49701,6.84589 10.99493,6.84589 1.922,0 3.87787,-0.45969 5.70728,-1.43149 l 28.68445,-15.07697 -6.80249,-15.31143 -24.04761,14.53707 z"
         fill-rule="evenodd"
         id="path382" />
      <path
         fill="#000000"
         d="m 838.7304,246.8344 -27.13886,14.76845 c -0.69104,0.37021 -1.43762,0.54608 -2.19036,0.54608 -0.50904,0 -1.02112,-0.0802 -1.52088,-0.23758 -1.15997,-0.46277 -2.1626,-1.39139 -2.70556,-2.55139 l -4.6399,-10.90279 c -0.15423,0.23447 -0.38562,0.38874 -0.53985,0.6201 l 4.48559,10.59122 c 0.61701,1.39447 1.77698,2.47424 3.16834,2.9401 0.54297,0.23138 1.15997,0.30853 1.78003,0.30853 0.84839,0 1.77697,-0.23139 2.55133,-0.61704 l 27.13879,-14.76844 z"
         fill-rule="evenodd"
         id="path383" />
      <path
         fill="#47284f"
         d="m 796.12946,240.10904 -9.04834,4.48267 4.71698,9.43428 c 1.62579,-0.54299 3.24854,-1.23713 4.71698,-2.16575 1.23706,-0.8515 2.39703,-1.77703 3.47986,-2.78277 z"
         fill-rule="evenodd"
         id="path384" />
      <path
         fill="#191919"
         fill-opacity="0.1161"
         d="m 796.8236,239.72044 -0.30853,0.15427 0.31158,-0.15119 z m 9.5882,-4.71713 -9.58515,4.72021 3.70819,8.73397 c 1.39136,-1.46851 2.55133,-3.09128 3.47992,-4.94852 1.23706,-2.39714 1.93427,-5.02565 2.55127,-7.73131 z"
         fill-rule="evenodd"
         id="path385" />
      <path
         fill="#3e4e6c"
         d="m 796.8236,239.72032 -0.30853,0.15425 -0.38562,0.23447 3.86554,8.96843 c 0.15423,-0.23139 0.38562,-0.38564 0.53985,-0.6201 z"
         fill-rule="evenodd"
         id="path386" />
      <path
         fill="#ae5d42"
         d="m 845.536,240.18616 -1.08282,1.46852 -6.72535,2.78278 3.63111,8.12001 7.11401,-3.32575 c 0.47199,-0.23756 1.03656,-0.33629 1.58569,-0.33629 0.16968,0 0.33936,0.009 0.50287,0.0278 l -0.38562,-1.31425 c -0.15429,-0.46585 0.15424,-1.00575 0.69409,-1.08287 l 2.55133,-0.30852 -3.16833,-1.00575 c -0.23138,-0.0771 -0.38867,-0.23138 -0.62006,-0.38872 z"
         fill-rule="evenodd"
         id="path387" />
      <path
         fill="#da6274"
         d="m 849.0931,235.16064 -3.55701,5.02565 4.09687,4.63693 c 0.23138,0.15734 0.38873,0.3116 0.62011,0.38872 l 3.16828,1.00575 -2.55127,0.30852 c -0.53992,0.0771 -0.84839,0.61702 -0.69415,1.08287 l 0.38562,1.31426 0.617,0.0771 c 4.02283,0.69415 7.88837,1.93127 11.59961,3.63426 0.78363,0.36713 1.59497,0.54607 2.40326,0.54607 0.54602,0 1.08594,-0.0802 1.61651,-0.23755 z"
         fill-rule="evenodd"
         id="path388" />
      <path
         fill="#000000"
         d="m 850.5615,233.1492 -1.46844,2.01151 17.70483,17.78259 c 0.77435,-0.23139 1.54559,-0.69724 2.16571,-1.31426 z"
         fill-rule="evenodd"
         id="path389" />
      <path
         fill="#ffffff"
         d="m 850.6387,245.2888 0.23138,1.23712 2.55127,-0.3085 z"
         fill-rule="evenodd"
         id="path390" />
      <path
         fill="#191919"
         fill-opacity="0.1161"
         d="m 837.72784,244.43733 3.6311,8.12003 2.2428,-1.08289 z"
         fill-rule="evenodd"
         id="path391" />
      <path
         fill="#2f748a"
         d="m 809.4288,224.48952 -27.37329,4.17416 -25.28168,-1.77702 c -0.37945,-0.0309 -0.7558,-0.0463 -1.1322,-0.0463 -5.29388,0 -10.1651,3.01724 -12.47577,7.85471 l -13.76221,28.84275 15.3078,7.1883 10.67102,-29.69113 31.77564,6.49725 c 1.30493,0.29616 2.60376,0.43808 3.88403,0.43808 8.3573,0 15.79523,-6.08385 17.06934,-14.66664 z"
         fill-rule="evenodd"
         id="path392" />
      <path
         fill="#ae5d42"
         d="m 732.9575,265.1595 -2.08545,4.5629 c -0.23138,0.617 -0.77435,1.08285 -1.46844,1.23712 h -0.0803 l 0.92859,1.00265 c 0.31159,0.46585 0.23139,1.08289 -0.23132,1.31736 l -2.24286,1.23712 v 0 l 3.24854,-0.23447 c 0.30853,0 0.53991,0.0771 0.77435,0.15427 l 5.56537,2.70871 0.46271,-1.78009 3.0943,-6.41706 z"
         fill-rule="evenodd"
         id="path393" />
      <path
         fill="#da6274"
         d="m 729.32336,270.95935 -0.53992,0.15424 c -3.30401,0.77746 -6.71606,1.1199 -10.14349,1.1199 -0.66638,0 -1.32965,-0.0123 -1.99597,-0.037 -0.0988,-0.006 -0.20056,-0.009 -0.29926,-0.009 -1.28955,0 -2.55749,0.45658 -3.48913,1.24637 l 23.11902,9.6626 1.39135,-6.02832 -5.56537,-2.63162 c -0.23443,-0.0771 -0.46582,-0.15424 -0.77435,-0.15424 l -3.24847,0.23447 v 0 l 2.24279,-1.23712 c 0.46277,-0.23447 0.54297,-0.8515 0.23139,-1.31735 z"
         fill-rule="evenodd"
         id="path394" />
      <path
         fill="#000000"
         d="m 712.8556,273.43353 c -0.69415,0.53989 -1.15997,1.23712 -1.54559,2.00842 l 24.12164,10.0513 0.54297,-2.39715 z"
         fill-rule="evenodd"
         id="path395" />
      <path
         fill="#ffffff"
         d="m 730.0206,273.27927 -2.24286,1.23715 2.94006,-0.15735 z"
         fill-rule="evenodd"
         id="path396" />
      <path
         fill="#191919"
         fill-opacity="0.1161"
         d="m 732.9575,265.1595 -0.617,1.31427 7.42254,4.94852 1.15998,-2.47428 z"
         fill-rule="evenodd"
         id="path397" />
      <path
         fill="#000000"
         d="m 799.68634,230.3665 c -0.62012,2.23979 -2.01147,4.17416 -3.94574,5.56555 -1.70599,1.17851 -3.72363,1.81714 -5.78442,1.81714 -0.64783,0 -1.29877,-0.0648 -1.9466,-0.19128 l -26.75323,-4.71714 c -0.70648,-0.13884 -1.41913,-0.20362 -2.1225,-0.20362 -4.43622,0 -8.58862,2.64703 -10.3255,6.85205 l -11.28809,27.837 0.69727,0.3085 11.36517,-27.837 c 1.60108,-3.93352 5.38947,-6.37384 9.52649,-6.37384 0.65711,0 1.32349,0.0617 1.99292,0.18818 l 26.75317,4.71715 c 0.69104,0.12648 1.38208,0.19127 2.06696,0.19127 2.22742,0 4.39001,-0.66946 6.28418,-1.96831 2.16571,-1.4685 3.63416,-3.71138 4.25116,-6.18565 z"
         fill-rule="evenodd"
         id="path398" />
      <path
         fill="#516381"
         d="m 800.3806,225.88087 v 0 h 0.0772 z"
         fill-rule="evenodd"
         id="path399" />
      <path
         fill="#191919"
         fill-opacity="0.1161"
         d="m 801.15497,225.72665 -0.77435,0.15425 0.76819,-0.11723 v 0 z m 8.27399,-1.23714 -8.28015,1.27416 v 0 l -0.45966,3.52012 c -0.0772,0.38564 -0.1543,0.69414 -0.23138,1.08287 l 8.11975,-0.3116 z"
         fill-rule="evenodd"
         id="path400" />
      <path
         fill="#191919"
         fill-opacity="0.1161"
         d="m 800.38055,225.88087 -15.61627,2.39713 2.55127,1.23713 c 1.41601,0.70958 2.96161,1.09213 4.57818,1.09213 0.14807,0 0.29615,-0.003 0.44733,-0.009 l 7.3454,-0.23138 c 0.0771,-0.38872 0.15423,-0.77435 0.23138,-1.16001 z"
         fill-rule="evenodd"
         id="path401" />
      <path
         fill="#3e4e6c"
         d="m 801.15497,225.72662 -0.77435,0.15425 -0.46277,3.32576 c -0.0771,0.38564 -0.15424,0.77127 -0.23132,1.16 h 0.77124 c 0.0771,-0.38873 0.15423,-0.69723 0.23138,-1.08288 z"
         fill-rule="evenodd"
         id="path402" />
      <path
         fill="#f49d5c"
         d="m 784.59766,184.1435 c -2.89374,0 -5.72583,0.74351 -8.26166,2.22745 l -2.62848,1.54564 -1.78003,2.08862 c -1.23706,1.46852 -1.46844,3.48001 -0.69409,5.17992 l 0.46271,1.00575 c 0.69415,1.54564 1.69983,2.93703 2.93695,4.17416 l 2.47418,2.32001 c 0.92859,0.92862 1.70294,2.16574 2.08856,3.48 l 2.70551,9.43429 c 0.54297,1.85416 0.54297,3.86565 -0.0771,5.7198 l -1.00574,3.32575 c -0.4627,1.46852 0,3.09437 1.23713,4.01991 l 0.46582,0.38872 c 1.5672,1.20012 3.45215,1.83873 5.34631,1.83873 0.90698,0 1.81708,-0.14809 2.69324,-0.44734 l 20.02478,-6.33991 c 1.31732,-0.38873 2.47418,-1.31425 3.17138,-2.6316 0.77436,-1.46853 0.85144,-3.24555 0.15424,-4.79119 l -3.16827,-7.34566 c -2.08857,-4.79426 -4.87122,-9.35716 -8.11975,-13.45419 l -3.86554,-4.79426 c -2.94001,-3.7114 -7.26825,-6.18566 -11.98523,-6.80578 -0.72498,-0.0925 -1.45307,-0.13882 -2.17493,-0.13882 z"
         fill-rule="evenodd"
         id="path403" />
      <path
         fill="#191919"
         fill-opacity="0.1161"
         d="m 797.3665,189.5423 -11.21094,4.40555 c 3.63416,2.08862 12.13953,2.32001 16.77631,2.32001 -0.15424,-0.15427 -0.23139,-0.30852 -0.30847,-0.38566 l -3.86554,-4.79426 c -0.38562,-0.54299 -0.85144,-1.08287 -1.39136,-1.54564 z"
         fill-rule="evenodd"
         id="path404" />
      <path
         fill="#f49d5c"
         d="m 801.6177,179.33392 -15.30786,3.86566 c -3.32562,0.85149 -5.1026,4.48575 -3.71124,7.58013 0.83606,2.0917 2.87213,3.36894 5.02551,3.36894 0.23132,0 0.46271,-0.0154 0.69409,-0.0463 l 16.62512,-2.00841 v -3.40288 c 0,-2.78277 -0.77435,-5.56863 -2.31994,-7.88864 z"
         fill-rule="evenodd"
         id="path405" />
      <path
         fill="#ae5d42"
         d="m 817.28955,178.98532 c -0.22211,0 -0.44421,0.0123 -0.67249,0.0401 l -13.99365,1.77704 c 1.5456,2.32001 2.31995,5.10586 2.31995,7.88864 v 1.00574 l 9.43396,-0.92862 4.25116,20.72271 -4.25116,2.93705 c -0.62006,0.38563 -0.92859,1.16 -0.85144,1.85724 l 0.23138,2.47425 c 0.0771,0.77129 0.62006,1.46853 1.3913,1.69991 l 4.09997,1.46851 c 0.253,0.0926 0.52137,0.13574 0.78669,0.13574 0.62933,0 1.2525,-0.24372 1.6875,-0.67563 l 1.69983,-1.46852 c 0.617,-0.6201 0.53991,-1.62586 -0.15424,-2.08862 1.15997,-1.93438 1.31421,-4.3315 0.46277,-6.41704 v -0.0771 l -0.92859,-25.05421 c -0.14191,-3.01416 -2.6192,-5.29715 -5.51294,-5.29715 z"
         fill-rule="evenodd"
         id="path406" />
      <path
         fill="#191919"
         fill-opacity="0.1161"
         d="m 814.9944,214.82413 c -0.0772,0 -0.1543,0.0771 -0.0772,0.15425 l 0.46277,3.09438 c 0,0.0771 0.0771,0.0771 0.0771,0.0771 h 0.0803 c 0,0 0.0771,-0.0771 0.0771,-0.0771 l -0.54297,-3.17151 c 0,0 -0.0771,-0.0771 -0.0771,-0.0771 z"
         fill-rule="evenodd"
         id="path407" />
      <path
         fill="#191919"
         fill-opacity="0.1161"
         d="m 816.7744,215.59846 c -0.0802,0 -0.0802,0.0771 -0.0802,0.0771 l 0.54297,3.16841 c 0,0 0,0.0771 0.0771,0.0771 0.0771,-0.0771 0.0771,-0.0771 0.0771,-0.15425 l -0.46276,-3.09128 c 0,-0.0771 -0.0771,-0.0771 -0.15424,-0.0771 z"
         fill-rule="evenodd"
         id="path408" />
      <path
         fill="#191919"
         fill-opacity="0.1161"
         d="m 818.5514,215.82983 c -0.0771,0 -0.0771,0.0771 -0.0771,0.15427 l 0.53992,3.09436 c 0,0 0,0.0771 0.0771,0.0771 0.0771,0 0.0771,-0.0771 0.0771,-0.15733 l -0.53985,-3.0913 c 0,-0.0771 0,-0.0771 -0.0772,-0.0771 z"
         fill-rule="evenodd"
         id="path409" />
      <path
         fill="#191919"
         fill-opacity="0.1161"
         d="m 820.32837,216.13834 c -0.0771,0 -0.0771,0.0771 -0.0771,0.15427 l 0.2345,1.93437 c 0,0.0771 0.0771,0.0771 0.15423,0.0771 0,0 0.0771,-0.0771 0.0771,-0.0771 l -0.0771,-0.38873 0.84839,-0.30852 c 0.0771,0 0.0771,-0.0771 0.0771,-0.15425 0,-0.0771 -0.0771,-0.0771 -0.15424,-0.0771 l -0.77124,0.30852 -0.23449,-1.39139 c 0,0 0,-0.0771 -0.0771,-0.0771 z"
         fill-rule="evenodd"
         id="path410" />
      <path
         fill="#191919"
         fill-opacity="0.1161"
         d="m 819.78845,188.07074 -5.41107,0.54297 c 0,0 -0.0771,0.0771 -0.0771,0.15427 0,0 0.0771,0.0771 0.0771,0.0771 l 5.41107,-0.6201 c 0.0771,0 0.0771,0 0.0771,-0.0771 0,-0.0771 0,-0.0771 -0.0771,-0.0771 z"
         fill-rule="evenodd"
         id="path411" />
      <path
         fill="#191919"
         fill-opacity="0.1161"
         d="m 803.7063,180.64815 -1.08289,0.15427 c 1.5456,2.32 2.31995,5.10586 2.31995,7.88862 v 1.00575 l 3.09119,-0.31159 c -0.15424,-3.32267 -1.77698,-6.57129 -4.32825,-8.73705 z"
         fill-rule="evenodd"
         id="path412" />
      <path
         fill="#191919"
         fill-opacity="0.1161"
         d="m 799.58777,181.31143 c -0.0154,0 -0.0308,0.009 -0.0555,0.0339 -0.0802,0 -0.0802,0.0771 0,0.15425 1.93121,3.01416 2.70556,6.80577 2.00836,10.35981 0,0.0771 0,0.15735 0.0772,0.15735 0.0771,0 0.0771,-0.0802 0.0771,-0.0802 0.77435,-3.63118 0,-7.49991 -2.00831,-10.5912 -0.0525,0 -0.071,-0.0339 -0.0987,-0.0339 z"
         fill-rule="evenodd"
         id="path413" />
      <path
         fill="#191919"
         fill-opacity="0.1161"
         d="m 780.8956,202.37602 v 0 c 1.08289,1.08287 2.55133,2.08862 4.33136,3.01416 1.69983,0.85149 3.63416,1.54872 5.64252,2.01149 1.67822,0.32086 3.35339,0.48436 4.9823,0.48436 0.32696,0 0.65088,-0.006 0.97174,-0.0216 1.93432,-0.15425 3.7113,-0.46277 5.1828,-1.00266 -1.54865,0 -3.32562,0 -5.1828,-0.0771 -1.77698,-0.15735 -3.78839,-0.46585 -5.64246,-0.85149 -1.93432,-0.38565 -3.78839,-0.92862 -5.56848,-1.54565 -1.69983,-0.6201 -3.32251,-1.31425 -4.71698,-2.01149 z"
         fill-rule="evenodd"
         id="path414" />
      <path
         fill="#191919"
         fill-opacity="0.1161"
         d="m 806.1804,209.7986 v 0 c -0.92859,0.5399 -2.08856,1.08289 -3.32562,1.46852 -1.23712,0.46585 -2.55133,0.69724 -3.94269,0.77437 -0.24677,0.0123 -0.49048,0.0185 -0.73114,0.0185 -1.12598,0 -2.20886,-0.13883 -3.28857,-0.32703 -1.23713,-0.3116 -2.47419,-0.69723 -3.47992,-1.16 v 0 c 0.85144,0.77128 1.93121,1.46852 3.24853,1.93129 1.14758,0.40414 2.41248,0.63244 3.74213,0.63244 0.19433,0 0.38867,-0.003 0.58612,-0.0123 1.46844,-0.0771 2.93695,-0.46585 4.17401,-1.08287 1.23712,-0.62012 2.31995,-1.39139 3.01715,-2.24289 z"
         fill-rule="evenodd"
         id="path415" />
      <path
         fill="#191919"
         fill-opacity="0.1161"
         d="m 806.1805,210.57295 v 0 c -0.54297,1.00265 -1.23712,2.08554 -2.01147,3.09128 -0.77124,1.00575 -1.69983,1.85724 -2.55127,2.62852 0.62005,0 1.23706,-0.15425 1.85717,-0.5399 0.61701,-0.3085 1.15998,-0.77435 1.62268,-1.39139 0.46277,-0.54297 0.77436,-1.23712 1.00574,-1.93435 0.15424,-0.61704 0.15424,-1.31427 0.0772,-1.85416 z"
         fill-rule="evenodd"
         id="path416" />
      <path
         fill="#191919"
         fill-opacity="0.1161"
         d="m 805.4832,218.22691 v 0 c -1.39136,0.69415 -3.0141,1.31425 -4.71393,1.77702 -1.70294,0.54299 -3.63415,0.92862 -5.49133,1.08287 -0.73731,0.0586 -1.46533,0.0833 -2.18109,0.0833 -1.15686,0 -2.28595,-0.0648 -3.38422,-0.16041 -1.85718,-0.23139 -3.47992,-0.61704 -4.94836,-1.00576 v 0 c 1.23706,0.85149 2.8598,1.62586 4.71386,2.08863 1.3451,0.28074 2.77344,0.47819 4.22028,0.47819 0.54913,0 1.10443,-0.0278 1.65668,-0.0926 2.08856,-0.15425 4.01977,-0.61702 5.7998,-1.39139 1.69983,-0.77127 3.16834,-1.77702 4.32831,-2.85989 z"
         fill-rule="evenodd"
         id="path417" />
      <path
         fill="#191919"
         fill-opacity="0.1161"
         d="m 780.5871,190.54494 v 0 c -0.46271,0.54297 -1.00568,1.08287 -1.69983,1.54872 -0.6972,0.46277 -1.46844,0.84841 -2.31988,1.00266 -0.32398,0.0617 -0.65094,0.0864 -0.97181,0.0864 -0.51831,0 -1.02423,-0.0679 -1.50238,-0.16351 -0.8515,-0.15427 -1.54559,-0.46277 -2.16571,-0.84841 v 0 c 0.46277,0.53989 1.15998,1.00266 2.01142,1.31426 0.56768,0.20669 1.20318,0.34245 1.83868,0.34245 0.31775,0 0.6355,-0.0339 0.94403,-0.11107 0.92859,-0.15425 1.77698,-0.62011 2.47418,-1.23713 0.69721,-0.54299 1.15998,-1.23712 1.3913,-1.93436 z"
         fill-rule="evenodd"
         id="path418" />
      <path
         fill="#ae5d42"
         d="m 775.793,180.4939 c -1.23712,2.55139 -3.40277,5.17992 -5.87695,6.65152 1.54864,1.54564 3.17138,3.16841 4.71698,4.71405 2.94,-0.30852 5.56842,-2.16267 6.57415,-4.94853 -2.24279,-1.77703 -4.02288,-3.94277 -5.41418,-6.41704 z"
         fill-rule="evenodd"
         id="path419" />
      <path
         fill="#191919"
         fill-opacity="0.1161"
         d="m 775.33026,181.26825 v 0 c -1.23706,2.32001 -3.24854,4.56288 -5.41418,5.87714 l 2.08856,2.08554 c 1.46844,-0.84841 2.55127,-2.16268 3.09424,-3.7114 0.53985,-1.39139 0.617,-2.85991 0.23138,-4.25128 z"
         fill-rule="evenodd"
         id="path420" />
      <path
         fill="#000000"
         d="m 769.2188,158.55316 c -2.26129,0 -4.51953,0.27148 -6.72534,0.83298 -2.70557,0.62011 -5.33399,1.6999 -7.42255,3.48001 -2.16253,1.77702 -3.71124,4.40555 -3.86548,7.11427 -0.15423,3.55715 1.85718,6.33992 5.02545,7.57706 4.02289,1.4685 7.4997,3.86564 11.83106,4.71713 1.46844,0.31468 2.98932,0.48436 4.5072,0.48436 2.9585,0 5.90161,-0.65404 8.40357,-2.18735 1.47149,-0.92862 2.70861,-2.16574 3.40271,-3.71138 0.69726,-1.46852 0.69726,-3.40289 -0.23133,-4.79428 -1.15997,-1.77702 -3.7113,-2.62851 -4.01977,-4.71713 -0.31159,-1.46852 0.77124,-2.93704 0.53985,-4.40555 -0.15423,-1.00575 -0.77124,-1.78012 -1.54559,-2.32001 -0.85144,-0.61702 -1.78003,-0.85148 -2.70557,-1.16 -2.35693,-0.59851 -4.77557,-0.91011 -7.19421,-0.91011 z"
         fill-rule="evenodd"
         id="path421" />
      <path
         fill="#191919"
         fill-opacity="0.1161"
         d="m 769.2188,158.55316 c -2.26129,0 -4.51953,0.27148 -6.72534,0.83298 -2.70557,0.62011 -5.33399,1.6999 -7.42255,3.48001 -2.16253,1.77702 -3.71124,4.40555 -3.86548,7.11427 -0.0771,1.69991 0.31159,3.16843 1.08283,4.40555 -0.46277,-2.85989 0.38562,-6.0314 2.2428,-8.35141 2.24279,-2.85989 5.56536,-4.5598 8.96814,-5.41129 2.58831,-0.63244 5.25994,-0.83607 7.9223,-0.83607 0.91931,0 1.83557,0.0247 2.74872,0.0617 1.08282,0.0771 2.24279,0.15734 3.32568,0.46585 1.07971,0.30851 2.08545,0.92862 2.78265,1.85415 0.15424,0.15425 0.23139,0.38874 0.38562,0.69724 -0.15423,-0.92862 -0.77124,-1.78011 -1.54559,-2.24288 -0.85144,-0.61702 -1.78003,-0.85148 -2.70557,-1.16 -2.35693,-0.59851 -4.77557,-0.91011 -7.19421,-0.91011 z"
         fill-rule="evenodd"
         id="path422" />
      <path
         fill="#ae5d42"
         d="m 766.04126,165.76904 c -0.3147,0 -0.6355,0.0864 -0.91626,0.26532 l -4.71698,3.09438 c -0.92859,0.61702 -2.01141,1.16 -3.09424,1.54563 l -3.47992,1.23714 c -0.53985,2.55139 -0.15423,5.25704 1.31421,7.57704 l 2.70862,4.25438 c 1.94977,3.0481 5.2569,4.74182 8.62573,4.74182 1.84174,0 3.70197,-0.50596 5.36792,-1.57341 4.01978,-2.55139 5.64557,-7.49992 4.17401,-11.82834 v 0 l -0.46277,0.0771 c -0.17273,0.0308 -0.34552,0.0494 -0.51825,0.0494 -1.0335,0 -1.96514,-0.58926 -2.49578,-1.51788 l -1.00574,-2.01149 c -0.30847,-0.46277 -0.69721,-0.85149 -1.23706,-0.92862 -0.54297,-0.0771 -0.92859,-0.46277 -1.15997,-0.92554 l -1.5456,-3.09438 c -0.31158,-0.6201 -0.92859,-0.96255 -1.55792,-0.96255 z"
         fill-rule="evenodd"
         id="path423" />
      <path
         fill="#ae5d42"
         d="m 777.0301,171.29434 c -1.69983,0 -3.01404,1.39139 -3.01404,3.01416 0,1.62277 1.31421,3.01724 3.01404,3.01724 1.62585,0 2.94006,-1.39447 2.94006,-3.01724 0,-1.62277 -1.31421,-3.01416 -2.94006,-3.01416 z"
         fill-rule="evenodd"
         id="path424" />
      <path
         fill="#191919"
         fill-opacity="0.1161"
         d="m 777.0301,172.68568 c -0.92859,0 -1.62268,0.77129 -1.62268,1.62277 0,0.85149 0.69409,1.62277 1.62268,1.62277 0.8515,0 1.54559,-0.77128 1.54559,-1.62277 0,-0.85148 -0.69409,-1.62277 -1.54559,-1.62277 z"
         fill-rule="evenodd"
         id="path425" />
      <path
         fill="#000000"
         d="m 759.7077,174.3115 c -0.76813,0 -1.5332,0.22214 -2.16254,0.69415 -1.00262,0.69416 -1.54559,1.77703 -1.62274,2.93703 l 4.87122,-3.48001 c -0.35169,-0.0987 -0.71881,-0.15117 -1.08594,-0.15117 z"
         fill-rule="evenodd"
         id="path426" />
      <path
         fill="#000000"
         d="m 767.04083,170.73595 c -0.3548,0 -0.71576,0.0524 -1.06744,0.16968 -1.15992,0.3116 -2.0083,1.23713 -2.39704,2.24289 l 5.72272,-1.69991 c -0.64789,-0.43191 -1.44379,-0.71266 -2.25824,-0.71266 z"
         fill-rule="evenodd"
         id="path427" />
      <path
         fill="#000000"
         d="m 760.94794,178.40533 c -0.38562,0 -0.77124,0.3116 -0.77124,0.69724 0,0.38563 0.38562,0.69723 0.77124,0.69723 0.30847,0 0.6972,-0.3116 0.6972,-0.69723 0,-0.38564 -0.38873,-0.69724 -0.6972,-0.69724 z"
         fill-rule="evenodd"
         id="path428" />
      <path
         fill="#000000"
         d="m 767.9077,175.23701 c -0.38562,0 -0.6972,0.3085 -0.6972,0.69414 0,0.38873 0.31158,0.69723 0.6972,0.69723 0.38562,0 0.69415,-0.3085 0.69415,-0.69723 0,-0.38564 -0.30853,-0.69414 -0.69415,-0.69414 z"
         fill-rule="evenodd"
         id="path429" />
      <path
         fill="#191919"
         fill-opacity="0.1161"
         d="m 766.3621,180.33965 c -0.46582,0.0771 -1.00574,0.23138 -1.54864,0.38564 -0.46277,0.23448 -0.92554,0.54298 -1.23713,1.00575 0.47199,0.0586 0.89466,0.20671 1.31116,0.20671 0.12952,0 0.26221,-0.0154 0.39179,-0.0525 0.53985,-0.23139 1.08282,-0.92552 1.08282,-1.54564 z"
         fill-rule="evenodd"
         id="path430" />
      <path
         fill="#ffffff"
         d="m 771.15314,179.72264 v 0 c -1.93121,2.70564 -5.1026,4.48268 -8.34802,4.79118 1.08282,0.46585 2.2428,1.00576 3.39966,1.08287 0.11724,0.009 0.23449,0.0123 0.35168,0.0123 1.05512,0 2.13794,-0.3116 2.97394,-0.93787 1.39136,-1.08288 1.85718,-3.17151 1.62274,-4.94853 z"
         fill-rule="evenodd"
         id="path431" />
      <path
         fill="#191919"
         fill-opacity="0.1161"
         d="m 762.185,200.51883 c -0.0771,0.0771 -0.0771,0.15735 0,0.15735 l 6.88269,7.42279 h 0.15424 c 0,-0.0771 0,-0.15735 0,-0.15735 l -6.88263,-7.34566 c -0.0771,-0.0771 -0.1543,-0.0771 -0.1543,-0.0771 z"
         fill-rule="evenodd"
         id="path432" />
      <path
         fill="#000000"
         d="m 761.7747,278.09192 c -0.22217,0 -0.44733,0.0185 -0.67255,0.0555 -1.23712,1.16001 -1.93121,2.86298 -1.77697,4.64002 l 0.23138,2.39712 6.57105,-3.48001 -0.46271,-1.08285 c -0.67871,-1.56107 -2.25519,-2.52982 -3.8902,-2.52982 z"
         fill-rule="evenodd"
         id="path433" />
      <path
         fill="#873d28"
         d="m 789.4781,273.27927 -10.05096,8.89133 -8.50537,-5.64579 c -1.03968,-0.69104 -2.22431,-1.04583 -3.41822,-1.04583 -0.9378,0 -1.88183,0.21902 -2.76721,0.66021 l -2.39709,1.16001 c -0.46271,0.23138 -0.84833,0.53988 -1.23707,0.84839 0.22522,-0.037 0.45044,-0.0555 0.67255,-0.0555 1.63501,0 3.21149,0.96871 3.8902,2.52978 l 0.46271,1.08289 1.39447,-0.77131 9.04522,7.96271 c 0.94403,0.86075 2.12867,1.28958 3.32563,1.28958 0.95636,0 1.92199,-0.27459 2.78271,-0.82373 l 12.75647,-8.42855 z"
         fill-rule="evenodd"
         id="path434" />
      <path
         fill="#191919"
         fill-opacity="0.1161"
         d="m 789.47815,273.27927 -4.25116,3.7114 -1.46844,4.63693 c -0.62012,1.85724 -2.16571,3.24862 -4.02289,3.63427 l -5.87384,1.31427 2.70556,2.32001 c 0.94397,0.86075 2.12867,1.28958 3.32563,1.28958 0.95636,0 1.92193,-0.27459 2.78265,-0.82373 l 12.75653,-8.42855 z"
         fill-rule="evenodd"
         id="path435" />
      <path
         fill="#873d28"
         d="m 839.04205,278.99893 -12.75958,7.34564 5.95404,7.42279 c 2.8598,3.55716 7.03692,5.87717 11.67676,6.41706 l 5.33398,0.54296 5.02551,9.12272 -0.15429,0.0771 c 3.7113,0.54297 6.95672,2.62851 8.89099,5.87714 l -6.33966,-18.09421 c -0.54297,-1.69989 -1.78009,-3.01416 -3.32563,-3.86563 l -5.10266,-2.62854 z"
         fill-rule="evenodd"
         id="path436" />
      <path
         fill="#000000"
         d="m 854.1186,309.92636 -0.38568,0.54297 c -1.31726,1.46854 -2.0885,3.39981 -2.16565,5.33417 h 11.44232 c -1.93432,-3.24863 -5.17975,-5.33417 -8.89099,-5.87714 z"
         fill-rule="evenodd"
         id="path437" />
      <path
         fill="#191919"
         fill-opacity="0.1161"
         d="m 839.04205,278.99893 -12.75958,7.34564 9.43396,6.10855 c 2.32916,1.49936 5.03778,2.27372 7.78039,2.27372 1.35431,0 2.7179,-0.18818 4.0506,-0.57383 l 3.94263,-1.23712 -3.24854,-1.69992 z"
         fill-rule="evenodd"
         id="path438" />
      <path
         fill="#ae5d42"
         d="m 851.41296,250.39143 c 3.32257,3.48001 4.09692,9.1227 1.93121,13.45421 -1.99908,3.79468 -6.27795,6.29669 -10.58465,6.29669 -0.51825,0 -1.03656,-0.037 -1.55487,-0.11105 v 0 c 0.46588,0.69415 0.62011,1.69989 0.77435,2.47427 2.29529,0.42575 4.62445,0.78052 6.96905,0.78052 1.05201,0 2.10706,-0.071 3.15906,-0.24063 3.32563,-0.61704 6.49396,-2.47428 7.96546,-5.56556 v 0 c -0.46582,0.15427 -1.23706,0.0772 -1.70288,0.15427 2.31988,-2.93704 3.01715,-7.11429 1.54864,-10.67142 v 0 c -0.23444,0.69724 -0.62006,1.39139 -0.92859,2.08863 -0.46582,-4.01992 -3.78839,-7.34566 -7.57678,-8.65993 z"
         fill-rule="evenodd"
         id="path439" />
      <path
         fill="#191919"
         fill-opacity="0.1161"
         d="m 846.696,269.4878 c -1.24939,0.435 -2.53278,0.67871 -3.83154,0.67871 -0.55225,0 -1.10443,-0.0432 -1.65979,-0.13574 v 0 c 0.46588,0.69415 0.62011,1.69989 0.77435,2.47427 2.29529,0.42572 4.62445,0.78052 6.96906,0.78052 1.052,0 2.10705,-0.0709 3.15905,-0.24063 0.0771,0 0.15424,-0.0771 0.23139,-0.0771 -1.77698,-1.31427 -3.71131,-2.47427 -5.64252,-3.48001 z"
         fill-rule="evenodd"
         id="path440" />
      <path
         fill="#f49d5c"
         d="m 800.44226,259.05112 c -5.27533,0 -14.60443,6.50342 -15.91248,8.19714 0.31775,0.0154 0.63245,0.0216 0.94715,0.0216 2.85052,0 5.67022,-0.63245 8.17834,-1.95596 2.8598,-1.39139 5.25684,-3.63428 6.87958,-6.26279 -0.0309,0 -0.0617,0 -0.0926,0 z"
         fill-rule="evenodd"
         id="path441" />
      <path
         fill="#873d28"
         d="m 796.32996,242.07729 c -1.77698,0 -3.5755,0.72191 -5.07172,1.74309 -1.78009,1.16 -3.17138,2.78277 -4.48565,4.32841 0.54297,0.30852 1.4685,0.92862 2.08856,1.23714 4.01977,-1.69991 8.42828,-2.93704 12.75653,-3.48001 -0.53986,-2.08554 -2.47418,-3.48001 -4.55963,-3.78853 -0.24371,-0.0278 -0.48438,-0.0401 -0.72809,-0.0401 z"
         fill-rule="evenodd"
         id="path442" />
      <path
         fill="#da6274"
         d="m 779.61536,257.6906 c -0.12958,0 -0.27148,0.0154 -0.41956,0.0463 -1.93432,0.15423 -3.63415,1.54562 -4.48559,3.24862 -1.00263,1.93128 -1.15997,4.17417 -0.84839,6.26279 0.15424,1.08285 0.46277,2.16266 1.23706,2.93701 0.48743,0.543 1.24634,0.89777 1.97443,0.89777 0.30847,0 0.61084,-0.0648 0.88537,-0.20053 0.8515,-0.54297 1.23712,-1.70298 1.15998,-2.70871 -0.0771,-1.00269 -0.38562,-2.00843 -0.46277,-3.01416 -0.0802,-1.31427 0.30853,-2.70566 1.07977,-3.78855 0.62012,-0.85147 1.47156,-1.70297 1.08282,-2.78277 -0.24987,-0.62629 -0.65093,-0.89777 -1.20312,-0.89777 z"
         fill-rule="evenodd"
         id="path443" />
      <path
         fill="#b8a9a2"
         d="m 803.3206,280.4674 -11.52252,2.86298 c 1.15997,1.46853 2.55133,2.70565 4.25421,3.71139 l 4.63678,2.70566 c 2.62225,1.51169 5.5777,2.27991 8.52698,2.27991 2.18109,0 4.35913,-0.41959 6.39831,-1.27417 l 14.14783,-5.87714 -4.01971,-2.70566 -13.22236,1.85416 c -0.45971,0.0648 -0.91626,0.0987 -1.37286,0.0987 -2.23352,0 -4.39307,-0.77435 -6.12683,-2.18426 z"
         fill-rule="evenodd"
         id="path444" />
      <path
         fill="#ae5d42"
         d="m 782.99036,245.38751 c -0.71576,0 -1.42841,0.20363 -2.01764,0.59543 l -2.23968,1.4716 c -0.55225,0.36713 -1.24634,0.58618 -1.93433,0.58618 -0.18201,0 -0.36401,-0.0154 -0.53986,-0.0463 l -9.58819,-1.23713 c -0.38568,0 -0.77436,0.30851 -0.69727,0.77437 l 0.77436,4.63693 c 0.30853,2.01149 1.77697,3.63426 3.7113,4.1001 l 7.9624,2.00842 c 0.62006,0.15426 1.00568,0.69723 1.00568,1.23712 0,0.69723 -0.46271,1.23715 -1.08283,1.31427 l -8.81384,1.16 0.38562,0.92862 c 0.62622,1.38831 2.06079,2.27683 3.57861,2.27683 0.17273,0 0.34552,-0.009 0.52137,-0.0339 l 7.80816,-1.00577 c 0.25293,-0.0432 0.50281,-0.0648 0.74964,-0.0648 1.0335,0 1.99597,0.38256 2.80737,1.07055 0.85144,0.61701 1.3913,1.54563 1.62268,2.55139 l 2.16571,9.89704 c 0.46271,2.08862 1.3913,4.01993 2.62842,5.7229 l 11.52252,-2.86298 1.69983,1.47159 c 1.73376,1.40988 3.89325,2.18427 6.12683,2.18427 0.4566,0 0.91315,-0.0339 1.3728,-0.0987 l 13.22235,-1.85416 4.01978,2.70566 8.96814,4.79425 c 2.18109,1.16925 4.61517,1.75235 7.05542,1.75235 1.11059,0 2.21814,-0.12033 3.30713,-0.36096 l 12.52514,-2.70566 11.21094,11.67411 c 0.38562,0.46585 0.85144,0.85147 1.31421,1.23712 -0.617,-1.69989 -0.23138,-3.7114 1.23706,-5.02567 l 2.08856,-1.69989 -8.42822,-10.20556 c -1.31427,-1.54874 -3.24853,-2.47736 -5.33398,-2.47736 h -7.19117 l -6.57415,-7.57703 c -3.95502,-4.51968 -9.71778,-7.10501 -15.69654,-7.10501 -0.56457,0 -1.1322,0.0216 -1.69983,0.071 l -12.91076,1.16 -14.38233,-4.02301 c -2.31994,-0.69415 -4.25116,-2.24286 -5.33398,-4.40555 l -3.01715,-6.10852 c -1.46845,-2.86297 -4.01978,-5.10278 -7.03382,-6.18565 l -5.64556,-2.08863 c -0.39795,-0.1419 -0.81446,-0.20979 -1.2309,-0.20979 z"
         fill-rule="evenodd"
         id="path445" />
      <path
         fill="#000000"
         d="m 877.46906,294.54132 -2.08856,1.69989 c -1.46845,1.31427 -1.85407,3.32574 -1.23706,5.02567 1.65356,1.19393 3.63415,1.8171 5.63324,1.8171 1.36664,0 2.74566,-0.29306 4.0321,-0.88849 z"
         fill-rule="evenodd"
         id="path446" />
      <path
         fill="#000000"
         d="m 766.7848,246.82515 c -0.46588,0 -0.72192,0.43192 -0.58002,0.86075 l 0.46588,1.31425 c 0.28998,0.79596 1.05195,1.32044 1.91266,1.32044 0.0555,0 0.1142,-0.003 0.17585,-0.006 l 1.85412,-0.23139 c 0.69721,-0.0771 0.85144,-1.00575 0.30847,-1.31425 l -2.31988,-1.39447 c -0.53992,-0.30852 -1.07978,-0.46277 -1.69989,-0.5399 -0.0401,-0.006 -0.0802,-0.009 -0.11719,-0.009 z"
         fill-rule="evenodd"
         id="path447" />
      <path
         fill="#000000"
         d="m 782.2654,248.6885 c -0.32703,0 -0.76196,0.28075 -1.05817,0.69724 -0.38867,0.6201 -0.46582,1.23712 -0.0771,1.4685 0.0709,0.0555 0.15734,0.0802 0.25293,0.0802 0.32702,0 0.76202,-0.28075 1.06128,-0.69724 0.38562,-0.6201 0.38562,-1.23714 0.0771,-1.4685 -0.0709,-0.0556 -0.1604,-0.0802 -0.25604,-0.0802 z"
         fill-rule="evenodd"
         id="path448" />
      <path
         fill="#191919"
         fill-opacity="0.1161"
         d="m 801.0007,261.60245 -5.56842,4.64001 -8.1167,2.62851 0.53992,2.78278 c 6.33966,-0.23138 11.90814,-4.79428 13.1452,-10.0513 z"
         fill-rule="evenodd"
         id="path449" />
      <path
         fill="#ebbe90"
         d="m 800.53485,259.05112 c -1.62274,2.62851 -4.01978,4.8714 -6.87958,6.26279 -2.50812,1.32351 -5.32782,1.95596 -8.17834,1.95596 -0.3147,0 -0.6294,-0.006 -0.94715,-0.0216 v 0 l 0.0772,1.16001 c 0.0771,0.46277 0.0771,0.92553 0.15735,1.31427 0.58923,0.0525 1.18768,0.0833 1.78619,0.0833 2.78272,0 5.63013,-0.60471 8.11048,-1.94055 2.93695,-1.69989 5.41113,-4.17417 6.95672,-7.19141 -0.30853,-0.38565 -0.77124,-1.23712 -1.08282,-1.62277 z"
         fill-rule="evenodd"
         id="path450" />
      <path
         fill="#000000"
         d="m 769.85126,296.46945 c -1.0304,0 -2.05151,0.39182 -2.79498,1.08597 -0.69416,2.47427 0.23138,5.1799 2.39703,6.72864 l 1.31421,0.84838 2.55133,-7.26852 -1.46851,-0.84839 c -0.617,-0.37332 -1.31109,-0.54608 -1.99908,-0.54608 z"
         fill-rule="evenodd"
         id="path451" />
      <path
         fill="#ae5d42"
         d="m 797.6256,272.02676 c -0.11108,0 -0.22522,0.003 -0.33624,0.0154 h -0.0771 c -2.16565,0.15427 -4.09998,1.39139 -5.25995,3.16843 l -6.72528,10.82565 -10.90247,2.70566 c -1.93426,0.46277 -3.63409,1.69989 -4.56268,3.48001 l -2.1626,3.94278 c -0.23449,0.46277 -0.46588,0.92862 -0.54297,1.39139 0.74347,-0.69416 1.76459,-1.08597 2.79499,-1.08597 0.68799,0 1.38208,0.17276 1.99908,0.54608 l 1.46851,0.84839 0.77429,-2.23978 12.44806,-2.32 c 1.77691,-0.30854 3.47986,-1.16001 4.87121,-2.32001 l 11.90815,-10.51718 -2.08857,-5.79691 c -0.50592,-1.59503 -1.96209,-2.64395 -3.60638,-2.64395 z"
         fill-rule="evenodd"
         id="path452" />
      <path
         fill="#ae5d42"
         d="m 801.303,245.02966 c -0.5954,0 -1.19385,0.0463 -1.77075,0.10489 -4.71698,0.53989 -9.27973,2.55139 -12.91388,5.56555 0.77435,0.54297 1.31421,1.54564 1.62274,2.47426 2.03607,-0.5183 4.14008,-0.77129 6.24097,-0.77129 1.6474,0 3.2948,0.15735 4.89282,0.46277 0.92859,0.23139 1.93433,0.46277 2.86292,0.5399 1.00567,0 1.93121,-0.0771 2.78265,-0.5399 1.31421,-0.77435 2.01141,-2.39712 1.77698,-3.86564 -0.23139,-1.46853 -1.23713,-2.78278 -2.62842,-3.40288 -0.87,-0.435 -1.86646,-0.56766 -2.86603,-0.56766 z"
         fill-rule="evenodd"
         id="path453" />
      <path
         fill="#191919"
         fill-opacity="0.1161"
         d="m 801.23206,247.1429 c -0.38562,0 -0.85144,0 -1.46844,0.0771 -3.32569,0.38872 -6.65131,1.62586 -9.51111,3.40288 1.39135,-0.15425 2.78271,-0.3085 4.25116,-0.3085 1.78003,0 3.557,0.15425 5.25995,0.53989 0.30847,0 0.53985,0.0771 0.77124,0.15425 0.62005,0.0802 1.23706,0.23448 1.85717,0.3116 h 0.30848 c 0.54296,0 1.00573,-0.0771 1.31427,-0.3116 0.46582,-0.30851 0.85144,-1.00266 0.6972,-1.69989 -0.0772,-0.69724 -0.62012,-1.46852 -1.39136,-1.77703 -0.54297,-0.3116 -1.23712,-0.38873 -2.08856,-0.38873 z"
         fill-rule="evenodd"
         id="path454" />
      <path
         fill="#000000"
         d="m 660.7434,315.80334 c -0.30847,0 -0.62006,0.3085 -0.62006,0.62012 0,0.3085 0.31159,0.53988 0.62006,0.53988 h 218.50201 c 0.31158,0 0.54291,-0.23138 0.54291,-0.53988 0,-0.31162 -0.23133,-0.62012 -0.54291,-0.62012 z"
         fill-rule="evenodd"
         id="path455" />
    </g>
  </g>
</svg>
